<svg clip-rule="evenodd" fill-rule="evenodd" stroke-linejoin="round" stroke-miterlimit="2" viewBox="0 0 48 43" xmlns="http://www.w3.org/2000/svg"><path d="m40 41.4h-.1v.1h.1v.2h-.1v.4h-.1v-.1h-.1v-.1h-.1v.1h.1v.1h-.1v.4h-.1v.2h-.2l-.1-.1v-.1h-.7l-.1-.1v-.1h.2v.1h.1v-.1h-.2v-.3h-.1l-.1.1-.1-.1v-.1h-.2v-.1l-.1-.1h-.1v-.1h-.1v-.4h-.1v-.2h-.1v-.5.1h.1v.1h.1v.2h.1v-.2h-.1v-.1l-.1-.1h-.1v-.2h-.1l-.1-.2-.1-.1-.1-.1v-.2h-.1v-.2l-.1-.2v-.3l-.2-.1v-.1h.1v-.4h.2v.1h.2l.1.1h.2v-.1.1h.5v.1h.2v.1h.1v.1h.3v.1h.6v.1l.1-.1h.3-.1.4l.1-.1h.2v-.1h.4v-.1h.1v-.1h.1l.1.1.2.2v1.9-.2h-.2v-.1h.1v-.1.1h-.1.1-.1v.2h-.1v.4l-.1.1v.3h-.1v.1h.1v.5-.1h-.1v.1h-.2v-.5h.2v-.1h-.2v-.1h-.2v.2h-.2v-.1l-.2-.2zm0 .8v.2h-.1v-.1.1h-.2v-.1h.1v-.1h.1v-.2.1h.1zm.1-.1h-.1v-.2l.1.1zm-1.3-.4h-.4v-.2l-.1-.1h.2v.2h.2v.1zm-.2-.4v.2h.2v-.2h-.1v-.1h-.2v.1h-.1.1zm2.2 0v-.1h.1v.1zm-3.6-2.7v-.1h.1zm3.8-.2h-.1v-.1h.1zm-4-.2v.2zm4.2-.1h.1v.1h-.5v-.2h.4zm-.5-.9.2.3h.2v.4h-.4v-.1h-.1v-.4h-.2v-.1h.1v-.1zm-4.5.5h-.2v-.1-.6h.2v.2h.1v.5zm-1.7-36.4v.4h.2v.3h.1v.6l.1.1h.2l.1.1v.2h-.2v.2h.1v.1h.1v.2h.2v.5h.1v1.2h.1v.1h.1v.4h.1v.1h.4v-.2h.4v-.1l.1.1v.2h.1v.1h.1l.1.1h.1l.1.1h.2v.1l.1.1h.1l-.1.2v.1h.1v.2h-.1v.4l.1.1v.2l.1.1v.6l.1.1v.1h.1v.1h.1v.1h.1v.2-.1h.2v.5h.1v.3h.1v.5l-.1.1v.3h.1v.1h.1v.1h.1v.5l.1.1.1.1h.1l.1.1h.2v.1h.2l.1.1h.1v.1h.5v-.1.1l.1.1v.2l.1.1h.1l.1.1v-.2l.1.1h.2v.1h.2v.1h.1v.1l.1.1h.1v-.1h.1v.1h.1v.1h.2v.2h.1v.1h-.2v.4h.1v.1h.2v.1h.1v.1h.1v.3h.1v.1l.1.1v.1l.1.1v.4l.1.1v.2h.1v.2h.1v.1h.2l.1.1v.1h.1l-.1-.2v-.5h.1l.1.1v.1h.1l.1.1h.1v.1h.1l.2.1-.1-.1v-.2h.1v.1h.1v.5h.1v.3h-.1v.4h.1v.4h.2l.1.1v.1h.1l.1.1h.1v.2h.2v.1h.2v-.3.1h.1v.1h.1v.1l.2.2v.1l.1.1.2.2h.1l.1.1v.2l.1.2.1.1h.2l.1.1v.5l.1.2v.1-.1h.1v.1h.1v.2l-.1.2v1l.1.2h-.1v.3h.1v.1l.1.1v.2h.1v.2h.1v.4h.1v.6h.1v.4h-.3v.2.2l-.1.1v.7l-.1.1v.2l-.1.2v.1h-.1v.3l-.1.2v.1h.1v.3l-.1.1v.4h-.1v.2h-.1v.2h-.1v.1l-.1.1-.1.1v.5l-.2.1-.1.1h-.1v.1h-.1v.2h-.4v.1h-.1v.2.2h-.1v.1h-.1v.2l-.1.1h-.2v.2h.1v.2h-.1v.2h-.1v.2h-.1v.1h-.1v.2h-.2v.2.1h.1v.2h-.1v.1h-.1v.2h.1v.1h-.1v.2h-.2v.2h-.1v.3h-.1v.2h-.2v.4h-.1v.7h-.2v.3.5l.1.1h-.1v.4h-.2v.1h-.1v.1h-.2v.1h-1.5l-.2.1-.2.1h-.2l-.2.2-.2.2-.3.2-.1.1-.1.2h-.1v.1h-.8v.3h.2v-.2h.1v.4h-.1l-.1-.1v-.1l-.1-.1-.1-.1h-.1v.1h-.1l-.1-.2h-.1v-.1h-.1v-.1h-.2v-.2h.1v-.2h-.4v.1h-.1l-.1.1h-.2l-.2-.1h.5v-.2h.1v-.4l-.1-.1h-.4v.1h-.2v.1h-.2v.1h.4v.1h-.1v.1h-.5v.1h-.1v.1h-.1l-.1.1h-.1v.1l-.1.1h-.1l-.1.1h-.1v.1h-.4v-.1l-.2-.1h-.2v-.1h-.2l-.1-.2h-.1v-.1h-.4l-.2-.1h-.4v.1h-.3v-.1l-.3-.2-.2-.1h-.5l-.1-.2v-.1l-.1-.1v-.1h-.1v-.1h-.1v-.1h-.1l-.3-.4v-.3h-.1l.1-.2v-.7l-.2-.2v-.1l-.1-.1v-.1l-.3-.2-.1-.1h-.1v-.1h-.1v-.1l.4.4h.1v.1l.2.1v.4-.3l-.2-.2-.3-.2v-.1h-.1v-.2h.1v.1h.1v.1h.1v-.1h-.1v-.1h.1v-.2h-.4v.2h-.2.2-.4v.1h-.1l-.1.1h-.4v-.1l.1-.1h.1v-.1h.1v-.5h.1v-.6h-.1v-.1h-.1v-.3h-.1l-.1-.2-.1.1v.2h-.1v.4l-.1.1v.2l-.1.1v.2h-.6v.1h-.4v.1-.3l.1-.2h.5v-.9h.1v-.4h.1v-.1l.1-.1v-.1h.1v-.1h.1v-.6h.2v-.2h-.1v-.3h-.2v-.2.5h-.2v.1l-.1.1v.1h-.1v.4h-.1v.1l-.1.2h-.2v.1h-.2v.1h-.2v.1h-.2v.1h-.1l-.1.1v.1l-.1.1v.2h-.3v.2h-.2v.2h-.1v.2h.1v-.1.3h-.1v-.1h-.3l-.1-.1v-.1h-.2v-.1l-.1-.1v-.1h.2v.1h.1v-.2l-.1-.2v-.1h-.2v-.5l-.1-.1-.1-.1h-.1v-.1h-.1v-.2l-.1-.1v-.1h-.1v-.2h-.2.1-.4v-.1h-.1v-.2h-.1v-.3h.1v.1-.4h-.4v-.4h-.2v-.1l-.1-.1v.1h-.6v-.1h-.1l-.2-.1h-.1-.1-.1v.1h-.4l-.1-.1-.2-.1-.2-.2-.3-.1-.2-.1h-1.7l-.3.1h-.6v.1l-.3.1h-.1l-.5.3h-.2l-.3.1-.2.1-.4.1h-1.5l-.1.1-.2.2h-.2v.1h-.2l-.1.1h-.2v.1h-.1l-.1.1h-.2l-.1.1h-.3l-.1.1h-.1l-.1.1-.1.1v.2h-.1v.2l-.1.1v.1.1h-.1v.2h-.2v.1h-.4l-.1.1h-.1l-.1-.1h-.6v.1h-.4v-.1h-1.9l-.2.1h-.6l-.2.1h-.1v.2.2h-.1v.1h-.2v.1h-.7v.2h-.3v.1l-.1.1v.1h-.2v.1h-.4v.1h.1v.1h-.6v-.1h-1.1l-.1-.1h.1v-.1h-.4v-.1h-.1v-.1l-.3-.2-.1-.2h-.1l-.2-.1h-.2l-.2-.1v-1h.2v.1h.2l.2-.2v-.2h.2v-.2.1-.5h-.1v-.4h.1v.2-1.3l-.1-.2v-.1l-.2-.2v-.1l-.1-.2-.1-.1-.1-.1v-.4h-.1v-.2h-.1v-1.4h-.1v-.2h-.1l-.2-.2v-.2h-.1v-.4l-.2-.2-.1-.2-.2-.1v-.8l-.1-.2-.1-.2-.2-.3-.2-.2v-.1h-.2v-.1l-.2-.2h-.1v-.1l-.1-.1h.1v-.2.3l.1.1v-.4.2h.2v.4-.2l.1-.1v.4h.1v.1h.2l.1-.1v-.5h-.2v-.1l-.1-.1v-.2h-.2v-.2-.2l.1.1v.1h.1v.1h.1v.5h.1v-.1h.1v-.2.4h.1v.2h.2v-.1h.2v-.7h-.1v-.1h-.1v-.2h-.1v-.1l-.1-.2v-.1h-.1v-.1h-.1v-.2h-.1v-.4l-.2-.1v-.8l.1-.2v-.1h.1v-.1h.1v-.6h.1v-.5h-.1v-.4h.1v-.1l.1-.3v-.2h.2v-.1h.1v1h.1v-.1l.1-.1v-.2h.1v-.2h.1v-.1l.1-.1h.1l.2-.2h.3l.3-.2.1-.1.1-.1.2-.1v-.1h.1v-.1h.2v-.1h.1v-.2h.4v-.1h.1l.1-.1h.1v-.2h.2v.1h1v-.1h.1v-.1l.3-.2h.9v-.1l.1-.2h.1v-.1h1l.2-.1h.3l.3-.2h.2l.1-.1.2-.2h.1l.2-.2v-.1l.2-.2v-.2h.1v-.2h.1v-.2l.1-.1h.1l.2-.1v-.1h.1v-.1h.1l.1-.1v-.2h-.2v-1l.2-.2h.2v-.2h.2v-.3h.1v-.2h.1.2v.4h.1v.3h.1v.1h.1v.2h.1v.2h.1v.1l.1.1v.1-.5h.1v-.2h.2v.2h.1v-.4h-.1l-.1-.1h-.2v-.2h-.1v-.3h.2-.1.2v-.2h-.1v-.1h.1v-.1h.1v.4h.1.1v-.2h.2v.2h.9-.4l-.1-.1v-.4l.1.1h.1v-.2h.1v-.1h-.1v.2h-.1v-.1h-.1v-.4h.2v-.1h.1v-.2h.3v.3h.3-.1v-.2h-.2.1v-.1h-.4v-.1h.2v-.1h.1v.1h.1v-.1h.1v.1h.1v-.1h-.1v-.1h-.1.1v-.4h-.1.1v-.2h.1v.2h.1v-.1h.1v-.1h.1v-.2h.1v.4-.2h.1v.1l.1.1v-.1h.1v-.1l.1-.1v-.1h.1v-.2h-.1v-.4h.1v.1h.1v.2h.1v-.2h.5-.2v.1h.1v.1h.1v-.1h.1v-.1h.1v-.3h.2v.2h.1v.1h.4v.1l.1.1h.1v.1h.1v.1l.1.1v.1h.1v.1h.2v.2l.1.1h.1v.1h-.1v.6h-.1v.2-.5h.2v.2-.5h.1v.1h.1v-.2l.1-.1h.5v.1h.2v.1h.1v.5-.1h.1v-.4h.2v.1h.1v.2h.1v.1h.1v-.2l-.1-.1v-.1h.4v-.2.1h-.4v-.1h-.1v-.1h.2-.2l-.2-.1v-.5h.1v-.1h.2v-.2h.1v-.4h.4v-.2h.2l-.1-.1h-.1v-.4h.2v-.2h.1v-.1h.5-.1v-.4h.2v.2h.1v.1h.1v-.2h-.2v-.1h.2v-.2h.4v-.2.1l.1.1h.1v.1h.5v-.1h.1v.1h.2l.1-.1h.2v.1-.1h.1.3-.3v-.6-.1l-.2-.1h-.5v-.2h-.3.1v-.1h.2v.1h.1v.1h.1v-.2.1-.1h.1v.1h.2v.1h.1l.1.1h.2v-.2h.2v.2h.1v.2h.4v.1h.5v.1h.5v.4h.6v-.1h.1v.1h.1.2v.1h.2v.1h.2l-.3-.2h.4l.1-.1h-.1v-.1h.2v-.1h.1v-.1.2h-.1.1l-.1.1-.1.1v.2h.1v-.2h.2v-.2h.1v.2h-.1v.1h.1v.2h.5v-.3h-.1.1v-.1h.1v-.1h.2-.1v.2h.1l.1.1h.2v.2l-.1.2v-.1h-.1v.2h-.1v.2h-.2v.2h.1l.1.1h-.1v.2h-.1v.1h-.1v-.4h-.1v.1h-.1v.1-.1h-.2v.1h-.2v.2h-.1v.6h.1v-.1h.1v.2h-.1v.3h-.2v.1l-.1.2h-.1v.1l-.1.1v.1h-.1v.4h.1v.1h.2v.1h.1l.1.1h.1l.1.1h.1v.1h.1v.1h.2v.1h.1v.1h.2v.2h.5v.1h.2v.1h.1v.1h.4v.1l.1.1v.1h.1v.1h.2v.2h.2v.1h.5v.1h.4v.2h.1v.3l.1.2h.5v.1h.1l.1.1h.1l.1.1h.2v.1h.7v-.1h.2v-.1h.1v-.4h.1v-.2l.2-.2v-.1l.1-.1v-.2h.1v-.2l.1-.1v-.4h.1v-.7l.2-.2v-.9h-.1v-.3l.1-.1v-.1l-.1-.2v-.5l.1-.1v-.1h.1v-.3h-.1v-.2h.1v-.1l.1-.1h.1v.4-.1l.1-.1h-.1v-.1h.1-.2v-.1h-.1v-.1.1h-.1l.1-.3h.1v-.5h.1v-.1.1h.1v-.3l.1-.5v-.5h.2l.1-.1v-.1h.1zm4.5 34.7h.2zm-1.5-.3h.2zm.2-.3h.1v.1h-.1zm-8.6-3.2h-.4v.2h-1.1v-.1h-.1v-.3h.1l.1-.1h.4v-.1h.6v.1h.2v.1h.1v-.1h.2v.1h.1v.1h-.2zm-1.9-1v-.2h-.2v-.1.1zm-3-3.6v-.1zm-20.6-.1v-.1zm-.2-.3h-.1zm43.6-5.4v-.4h.1v.4zm0-.5v-.5.4zm-46.6-2.3h.1v.4h.1v.2h.1v.2-.1h-.2v-.1l-.1-.1v-.2h-.1v-.3zm46.4-.9v.2l.1.1v.4l-.2.2-.1.3v.1h-.1v-.7l.2-.1v-.6h.1zm-46.3.7v-.5h.1v.2zm.1-.4v-.2.1zm44-1.3v-.1zm-.4-.5h.2v.2h.1v.1h-.1v-.1h-.1v-.1h-.1zm-.5-1.4h-.1v-.2h.1zm-.8-.1v-.2.1zm.6-.6h-.1zm0-.1h-.1zm-40.2-1h-.1v-.4h.1v.2zm38.7-.4v-.1zm0-.3h-.1v-.1zm-.2-.1v-.1zm-2.3-1.2h-.1zm-.8-1.1h.1v.2h-.1v-.1h-.1v-.1zm-7.7-1.4v-.1h.1-.1zm-.4-.3v-.1zm0-.2v-.1h.1v-.1h.1v-.2h.5-.2v.2h-.2v.1h-.2zm-2.6-1.2.1-.1h.1v.2h-.2zm-.1 0h-.1zm-.3-.1v-.1zm.3 0v-.1zm-14.2-.3v-.1h.1v.1zm0 0h-.1v-.1zm4.3-.2h-.1v-.1zm.3-.2h-.1v-.1zm-4 0h-.1v-.1zm5.3-.1v-.1h-.1zm7 0v-.1zm-7 0v-.1zm-5-.5h-.1v.2h-.1v-.2h.1zm13.4-.4v.1h-.6v-.5h.2v-.1h.1v-.1.2h.2v-.1h.1v.1h-.1v.2h-.1v.2zm-.7-.5v.1h-.3v-.2h.1zm-.1-.3h-.2v-.1zm-4.3-1.6h-.1zm2.8 0v-.1zm1.6-.1h-.3.2zm-1.5 0h-.1zm-4.3-.4-.2.1-.1.2h-.2v-.1h-.2v-.1h-.1v-.1h-.1v-.2h-.1v-.3h-.1v-.2l.1.1h.1v.1h.6.1v.1-.1l.1-.1v.1h.2v.1h.1v.2h-.1zm-1.3.2h-.2v-.2h.1v-.4h.1v-.1h.2v.4h.2v.1h-.5zm2.8-.3v.1zm4 .1h-.1zm.5-.2h-.1v.1h-.2.1l.1-.1zm-3.5.2v-.1zm3.8-.8v.3l-.1.1v.1h-.1v.1h-.1v-.3h.1l.1-.1v-.1h.1zm-4.8.1v.2-.2h-.1v-.1h.1zm11.2-.4h-.2v-.1h.1zm0-.1v-.1zm0-.5h-.2v-.2h.1zm-.2 0v-.3.1z" fill="#75878b" fill-rule="nonzero"/><path d="m46.4 36.6h-6.2v-10.2h6.2zm-4.7-8.6v7.2h3.2v-7.2z" fill="#e0e0e0"/></svg>
